# xmcd
#
# Track frame offsets: 
#        150
#        30007
#        56056
#        79622
#        101601
#        131859
#        148246
#        166710
#        193080
#
# Disc length: 3050 seconds
#
# Revision: 0
# Processed by: cddbd v1.5.2PL0 Copyright (c) Steve Scherf et al.
# Submitted via: ExactAudioCopyFreeDBPlugin 1.0
#
DISCID=730be809
DTITLE=Shiny Old Soul - Cash is King
DYEAR=2011
DGENRE=Blues
TTITLE0=Fire2Fog
TTITLE1=Kitchen Witch
TTITLE2=Siren on the Rocks
TTITLE3=Cash is King
TTITLE4=4th of July
TTITLE5=S.O.S.
TTITLE6=California
TTITLE7=Dandelion Wine
TTITLE8=Shimmer
EXTD=
EXTT0=
EXTT1=
EXTT2=
EXTT3=
EXTT4=
EXTT5=
EXTT6=
EXTT7=
EXTT8=
PLAYORDER=
